<svg width="16" height="19" viewBox="0 0 16 19" fill="none" xmlns="http://www.w3.org/2000/svg">
<path d="M15.5515 8.52865C14.5423 5.23574 11.6334 2.50658 11.6334 2.50658C11.6334 2.50658 10.5882 1.49654 9.74316 1.82709C9.52523 1.91236 9.29086 2.10627 8.93225 2.92187C8.71273 3.42136 8.44783 4.15293 8.29292 5.10644C8.2863 5.14691 8.22668 5.14301 8.22651 5.10196C8.22027 3.34341 8.23489 -1.55196 5.1627 0.48917C-0.294178 4.11456 -0.0949807 11.5061 0.0510263 13.4531C0.112071 14.2667 0.286993 15.0688 0.559909 15.8376C1.95482 19.7666 6.20489 22.6881 5.34441 7.65205C5.34135 7.59907 5.41739 7.58765 5.42936 7.6392C5.67944 8.71862 6.10583 12.6138 8.00394 12.9918C8.0505 13.0011 8.22132 13.0264 8.43946 12.998C9.96468 12.7993 10.5376 10.3218 10.8052 9.36281C10.8189 9.31357 10.8914 9.3239 10.8914 9.37512V12.2961C10.8914 12.2961 10.8618 14.7286 12.7317 15.3515C14.6017 15.9744 15.5515 13.8978 15.5515 13.8978C15.5515 13.8978 16.5607 11.8213 15.5515 8.52865ZM2.60346 6.22599L2.50851 6.49304C2.48423 6.57279 2.45728 6.69088 2.43568 6.7726C2.41784 6.88676 2.24898 6.88675 2.23149 6.77382C2.21757 6.68231 2.19293 6.5569 2.18276 6.4663L2.17277 6.32591C2.16241 6.17891 2.22596 6.03066 2.35161 5.95342C2.54028 5.83729 2.69699 5.95362 2.60346 6.22599ZM5.29764 1.76358C4.51064 2.60773 3.82437 3.53393 3.29921 4.55932C3.12449 4.8968 2.96706 5.24273 2.81552 5.59289C2.70146 5.84441 2.32377 5.70599 2.40034 5.44019C2.88423 3.92262 3.8986 2.56152 5.22177 1.67421C5.27783 1.63729 5.34491 1.7131 5.29764 1.76358Z" fill="#7FFFD4"/>
</svg>
