<svg width="11" height="16" viewBox="0 0 11 16" fill="none" xmlns="http://www.w3.org/2000/svg">
<path fill-rule="evenodd" clip-rule="evenodd" d="M5.5079 9.57656C4.45924 9.57656 3.47415 9.16156 2.73239 8.4082C0.261428 5.89516 2.03537 1.59609 5.5079 1.59609C8.97808 1.59609 10.7567 5.89276 8.28342 8.4082C7.54166 9.16156 6.55657 9.57656 5.5079 9.57656ZM9.38232 9.53662C12.8556 6.00528 10.3533 0 5.50555 0C0.668807 0 -1.86259 6.00528 1.61151 9.53662C2.48357 10.4233 3.91606 10.9436 4.70099 11.1088V12.8078H2.3462V14.4039H4.70099V16H6.27085V14.4039H8.62565V12.8078H6.27085V11.1088C7.84072 10.9436 8.50948 10.4233 9.38232 9.53662Z" fill="#FA8072"/>
</svg>
