<svg width="16" height="16" viewBox="0 0 16 16" fill="none" xmlns="http://www.w3.org/2000/svg">
<path fill-rule="evenodd" clip-rule="evenodd" d="M5.6 14.4004C3.3944 14.4004 1.6 12.6064 1.6 10.4014C1.6 8.19635 3.3944 6.4024 5.6 6.4024C7.8056 6.4024 9.6 8.19635 9.6 10.4014C9.6 12.6064 7.8056 14.4004 5.6 14.4004ZM9.6 0V1.5996H13.2688L8.9488 5.9201C8.0144 5.22028 6.8576 4.80202 5.6 4.80202C2.5072 4.80202 0 7.30859 0 10.4006C0 13.4926 2.5072 16 5.6 16C8.6928 16 11.2 13.4934 11.2 10.4014C11.2 9.14412 10.78 7.9876 10.0808 7.05263L14.4 2.73447V6.3984H16V0H9.6Z" fill="#6495ED"/>
</svg>
