<svg width="16" height="16" viewBox="0 0 16 16" fill="none" xmlns="http://www.w3.org/2000/svg">
<path d="M15.3846 16H0.615385C0.278974 16 0 15.7279 0 15.3998C0 15.0716 0.278974 14.7995 0.615385 14.7995H15.3846C15.721 14.7995 16 15.0716 16 15.3998C16 15.7279 15.721 16 15.3846 16Z" fill="#F2F2F2"/>
<path d="M13.7605 1.17951C12.1687 -0.373098 10.6097 -0.413114 8.9769 1.17951L7.98408 2.14789C7.90203 2.22792 7.86921 2.35597 7.90203 2.46801C8.52562 4.58884 10.2651 6.2855 12.4395 6.89372C12.4723 6.90173 12.5051 6.90973 12.5379 6.90973C12.6282 6.90973 12.7102 6.87772 12.7759 6.81369L13.7605 5.84533C14.5728 5.06102 14.9666 4.30073 14.9666 3.53243C14.9749 2.74012 14.581 1.97182 13.7605 1.17951Z" fill="#F2F2F2"/>
<path d="M10.9623 7.62137C10.7243 7.50932 10.4946 7.39728 10.2731 7.26923C10.0926 7.16519 9.92025 7.05315 9.74794 6.9331C9.60845 6.84507 9.44435 6.71701 9.28845 6.58896C9.27204 6.58096 9.21461 6.53294 9.14896 6.46892C8.87819 6.24481 8.5746 5.9567 8.30384 5.63658C8.27922 5.62057 8.23819 5.56455 8.18076 5.49252C8.09871 5.39648 7.95922 5.23642 7.83614 5.05235C7.73768 4.9323 7.62281 4.75623 7.51614 4.58016C7.38486 4.36408 7.26999 4.148 7.15512 3.92391C7.13772 3.88758 7.1209 3.85143 7.10466 3.8155C6.98355 3.54874 6.62687 3.47075 6.41543 3.67704L1.71513 8.26162C1.60847 8.36566 1.51001 8.56574 1.48539 8.70179L1.04231 11.767C0.960262 12.3112 1.11616 12.8234 1.46078 13.1675C1.75616 13.4476 2.16642 13.5997 2.60949 13.5997C2.70795 13.5997 2.80642 13.5917 2.90488 13.5757L6.05565 13.1435C6.20334 13.1195 6.40845 13.0235 6.50691 12.9194L11.2013 8.34061C11.4143 8.13285 11.334 7.77639 11.057 7.66106C11.0258 7.6481 10.9942 7.63481 10.9623 7.62137Z" fill="#F2F2F2"/>
</svg>
