<svg width="16" height="14" viewBox="0 0 16 14" fill="none" xmlns="http://www.w3.org/2000/svg">
<path d="M15.9106 7.48487L14.4883 12.4704C14.2786 13.2024 13.6015 13.7138 12.841 13.7138H5.14239C4.8264 13.7138 4.57098 13.4578 4.57098 13.1424V5.14267C4.57098 5.01982 4.61041 4.89982 4.68412 4.80154L7.76515 0.664547C8.10685 0.236563 8.59941 0 9.12739 0C10.0811 0 10.8565 0.7754 10.8565 1.72908V4.57126H13.7147C14.4375 4.57126 15.1015 4.90211 15.5363 5.47923C15.9729 6.05749 16.1089 6.78832 15.9106 7.48487Z" fill="white"/>
<path d="M2.85704 4.5712H0.571408C0.25542 4.5712 0 4.82719 0 5.14261V13.1423C0 13.4577 0.25542 13.7137 0.571408 13.7137H2.85704C3.17303 13.7137 3.42845 13.4577 3.42845 13.1423V5.14261C3.42845 4.82719 3.17303 4.5712 2.85704 4.5712Z" fill="white"/>
</svg>
