<svg width="14" height="16" viewBox="0 0 14 16" fill="none" xmlns="http://www.w3.org/2000/svg">
<path d="M10.89 0H3.11C1.4 0 0 1.38956 0 3.08681V14.3621C0 15.8013 1.04 16.4067 2.31 15.712L6.24 13.5383C6.66 13.31 7.34 13.31 7.76 13.5383L11.69 15.712C12.96 16.4067 14 15.8013 14 14.3621V3.08681C14 1.38956 12.6 0 10.89 0ZM9 6.81876H7.75V8.05944C7.75 8.46639 7.41 8.80385 7 8.80385C6.59 8.80385 6.25 8.46639 6.25 8.05944V6.81876H5C4.59 6.81876 4.25 6.4813 4.25 6.07436C4.25 5.66741 4.59 5.32995 5 5.32995H6.25V4.08928C6.25 3.68234 6.59 3.34487 7 3.34487C7.41 3.34487 7.75 3.68234 7.75 4.08928V5.32995H9C9.41 5.32995 9.75 5.66741 9.75 6.07436C9.75 6.4813 9.41 6.81876 9 6.81876Z" fill="#858CE0"/>
</svg>
