<svg width="16" height="16" viewBox="0 0 16 16" fill="none" xmlns="http://www.w3.org/2000/svg">
<path d="M14.6667 0H1.33333C0.979836 0.000405822 0.640933 0.141012 0.390972 0.390972C0.141012 0.640933 0.000405822 0.979836 0 1.33333V14.6667C0.000405822 15.0202 0.141012 15.3591 0.390972 15.609C0.640933 15.859 0.979836 15.9996 1.33333 16H14.6667C15.0202 15.9996 15.3591 15.859 15.609 15.609C15.859 15.3591 15.9996 15.0202 16 14.6667V1.33333C15.9996 0.979836 15.859 0.640933 15.609 0.390972C15.3591 0.141012 15.0202 0.000405822 14.6667 0ZM12 14.6667V12H9.33333V14.6667H6.66667V12H4V9.33333H6.66667V6.66667H4V4H6.66667V1.33333H9.33333V4H12V1.33333H14.6667V14.6667H12Z" fill="#F2F2F2"/>
<path d="M9.33333 4H6.66667V6.66667H9.33333L9.33333 4Z" fill="#F2F2F2"/>
<path d="M9.33333 9.33333L6.66667 9.33333V12H9.33333L9.33333 9.33333Z" fill="#F2F2F2"/>
<path d="M12 6.66667L9.33333 6.66667V9.33333H12V6.66667Z" fill="#F2F2F2"/>
</svg>
