<svg width="14" height="13" viewBox="0 0 14 13" fill="none" xmlns="http://www.w3.org/2000/svg">
<path d="M5.87145 0.492998C6.25809 -0.164341 7.2087 -0.164341 7.59535 0.492999L9.11293 3.07306C9.25376 3.31249 9.48783 3.48255 9.75906 3.5425L12.6818 4.18853C13.4265 4.35312 13.7202 5.2572 13.2145 5.82805L11.2297 8.06864C11.0455 8.27657 10.9561 8.55173 10.9829 8.82821L11.2717 11.8075C11.3452 12.5666 10.5762 13.1254 9.877 12.8208L7.13273 11.6255C6.87806 11.5146 6.58874 11.5146 6.33407 11.6255L3.58979 12.8208C2.89062 13.1254 2.12156 12.5666 2.19513 11.8075L2.4839 8.82821C2.5107 8.55173 2.4213 8.27657 2.23711 8.06864L0.252278 5.82805C-0.25341 5.2572 0.0403444 4.35312 0.784992 4.18853L3.70774 3.5425C3.97897 3.48255 4.21304 3.31249 4.35386 3.07306L5.87145 0.492998Z" fill="#333333"/>
</svg>
