<svg width="16" height="16" viewBox="0 0 16 16" fill="none" xmlns="http://www.w3.org/2000/svg">
<path fill-rule="evenodd" clip-rule="evenodd" d="M8.57077 0C9.32648 0 9.97579 0.495569 10.118 1.18093L10.1812 1.48569C10.4297 2.68359 11.7716 3.39895 13.0194 2.99873L13.337 2.89686C14.0508 2.66789 14.8403 2.93929 15.2181 3.54359L15.7889 4.45636C16.1668 5.06069 16.0266 5.82765 15.4548 6.28401L15.2006 6.48697C14.2012 7.28465 14.2012 8.71537 15.2006 9.51301L15.4548 9.71595C16.0266 10.1723 16.1668 10.9393 15.7889 11.5436L15.2182 12.4564C14.8403 13.0607 14.0508 13.3321 13.3369 13.1031L13.0194 13.0012C11.7716 12.6009 10.4297 13.3163 10.1812 14.5143L10.118 14.819C9.97579 15.5044 9.32648 16 8.57077 16H7.42924C6.67353 16 6.02423 15.5044 5.88205 14.8191L5.81878 14.5141C5.57025 13.3163 4.22833 12.6009 2.98052 13.0012L2.66312 13.103C1.94921 13.3321 1.15975 13.0606 0.781855 12.4563L0.211127 11.5436C-0.16675 10.9393 -0.0265849 10.1723 0.545135 9.71595L0.799433 9.51301C1.79872 8.7153 1.79872 7.28465 0.799433 6.487L0.545135 6.28402C-0.0265849 5.82765 -0.166749 5.0607 0.211127 4.45639L0.781876 3.54362C1.15975 2.93929 1.94919 2.6679 2.6631 2.89688L2.98059 2.99872C4.22837 3.39895 5.57025 2.68364 5.81878 1.48577L5.88204 1.18087C6.02423 0.495541 6.67346 0 7.42924 0H8.57077ZM8 10.2857C9.32546 10.2857 10.4 9.26234 10.4 8.00001C10.4 6.7376 9.32546 5.71428 8 5.71428C6.67448 5.71428 5.59998 6.7376 5.59998 8.00001C5.59998 9.26234 6.67448 10.2857 8 10.2857Z" fill="#F2F2F2"/>
</svg>
