<svg width="20" height="17" viewBox="0 0 20 17" fill="none" xmlns="http://www.w3.org/2000/svg">
<path d="M14.8525 8.45605C15.2013 8.26466 15.6386 8.29645 15.958 8.55176L19.291 11.2188C19.7222 11.5637 19.7921 12.1928 19.4473 12.624C19.1023 13.0553 18.4733 13.1253 18.042 12.7803L16.333 11.4131V16C16.3328 16.5521 15.8852 17 15.333 17C14.781 16.9998 14.3332 16.552 14.333 16V11.4141L12.625 12.7803C12.1937 13.1253 11.5638 13.0553 11.2188 12.624C10.8743 12.1928 10.9441 11.5636 11.375 11.2188L14.709 8.55176L14.8525 8.45605Z" fill="#F2F2F2"/>
<path d="M13.0078 0C13.8291 0 14.7463 0.0803257 15.333 0.666992C15.9196 1.25361 16 2.17586 16 3.00781V7.44824C15.5679 7.29564 15.0949 7.29562 14.6631 7.44922C14.6621 4.88282 14.6621 2.46999 14.667 2.3418C14.6777 2.07526 14.5814 1.84029 14.3789 1.6377C14.1763 1.43506 13.9414 1.33304 13.6748 1.33301H2.3418C2.0538 1.34367 1.81309 1.4457 1.62109 1.6377C1.42929 1.82964 1.33301 2.06461 1.33301 2.3418V13.6748C1.32238 13.9521 1.41847 14.1869 1.62109 14.3789C1.82376 14.5709 2.06446 14.667 2.3418 14.667H13.333V15.9941C13.2237 15.9978 13.1148 16 13.0078 16H3.00781C2.17586 15.9893 1.25361 15.909 0.666992 15.333C0.0803255 14.757 0 13.8398 0 13.0078V3.00781C1.203e-05 2.17586 0.0803696 1.25361 0.666992 0.666992C1.25361 0.0803696 2.17586 1.203e-05 3.00781 0H13.0078Z" fill="#F2F2F2"/>
<path d="M11.0195 6.09766C11.2522 6.11059 11.4784 6.23413 11.6982 6.4668C11.931 6.77715 12.1901 7.20395 12.4746 7.74707C12.6164 8.01781 12.7676 8.33364 12.9287 8.69434L10.751 10.4375C9.8885 11.1275 9.74859 12.3865 10.4385 13.249C10.4619 13.2783 10.488 13.3054 10.5127 13.333H3.20215C2.86628 13.3458 2.58221 13.2297 2.34961 12.9844C2.11685 12.7387 2.00001 12.4475 2 12.1113V11.7236C2.14222 11.3875 2.35524 10.87 2.63965 10.1719C2.92414 9.47357 3.11163 9.02038 3.20215 8.81348C3.37022 8.46443 3.60967 8.39385 3.91992 8.60059C4.11389 8.7299 4.43802 9.09827 4.89062 9.70605C5.01986 9.87405 5.11701 9.99666 5.18164 10.0742C5.62108 10.6558 5.9567 10.947 6.18945 10.9473C6.43515 10.9343 6.65564 10.8439 6.84961 10.6758C7.04353 10.5077 7.26318 10.2682 7.50879 9.95801C7.75446 9.64768 7.98722 9.32446 8.20703 8.98828C8.42687 8.65206 8.65957 8.30911 8.90527 7.95996C9.15093 7.61087 9.39031 7.29422 9.62305 7.00977C9.85576 6.72534 10.0886 6.49915 10.3213 6.33105C10.554 6.163 10.7868 6.08479 11.0195 6.09766Z" fill="#F2F2F2"/>
<path d="M4.49609 3.00781C4.93338 2.99717 5.29105 3.14179 5.56836 3.44043C5.84538 3.73895 5.98928 4.09603 6 4.51172C6.01067 4.92772 5.86702 5.28036 5.56836 5.56836C5.26972 5.85634 4.91205 5.99998 4.49609 6C4.08028 6 3.72836 5.8561 3.44043 5.56836C3.15243 5.28036 3.00781 4.92772 3.00781 4.51172C3.02919 4.07451 3.17382 3.7177 3.44043 3.44043C3.7071 3.1631 4.05876 3.01848 4.49609 3.00781Z" fill="#F2F2F2"/>
</svg>
