<svg width="16" height="16" viewBox="0 0 16 16" fill="none" xmlns="http://www.w3.org/2000/svg">
<path d="M11.2001 8.72V12.08C11.2001 14.88 10.0801 16 7.28007 16H3.92004C1.12001 16 0 14.88 0 12.08V8.72C0 5.92 1.12001 4.8 3.92004 4.8H7.28007C10.0801 4.8 11.2001 5.92 11.2001 8.72Z" fill="#858CE0"/>
<path d="M12.08 0H8.71993C6.25341 0 5.09664 0.875272 4.85566 2.99121C4.80524 3.43388 5.17186 3.8 5.61739 3.8H7.27991C10.6399 3.8 12.2 5.36 12.2 8.72V10.3825C12.2 10.828 12.566 11.1946 13.0088 11.1442C15.1247 10.9032 16 9.74648 16 7.28V3.92C16 1.12 14.88 0 12.08 0Z" fill="#858CE0"/>
</svg>
