<svg width="20" height="17" viewBox="0 0 20 17" fill="none" xmlns="http://www.w3.org/2000/svg">
<path d="M15.333 8.33301C15.8852 8.33301 16.3328 8.78089 16.333 9.33301V13.9199L18.042 12.5527C18.4732 12.2077 19.1023 12.2777 19.4473 12.709C19.7921 13.1402 19.7222 13.7693 19.291 14.1143L15.958 16.7812C15.6386 17.0367 15.2014 17.0684 14.8525 16.877L14.709 16.7812L11.375 14.1143C10.944 13.7693 10.8741 13.1402 11.2188 12.709C11.5638 12.2777 12.1937 12.2077 12.625 12.5527L14.333 13.9189V9.33301C14.3332 8.78097 14.781 8.33314 15.333 8.33301Z" fill="#F2F2F2"/>
<path d="M13.0078 0C13.8291 9.95859e-06 14.7464 0.080365 15.333 0.666992C15.9194 1.25363 16 2.17596 16 3.00781V7.44922C15.7912 7.37526 15.5672 7.33301 15.333 7.33301C15.0975 7.33303 14.872 7.37536 14.6621 7.4502C14.6611 4.88366 14.6611 2.4704 14.666 2.3418C14.6767 2.07513 14.5806 1.84036 14.3779 1.6377C14.1753 1.43503 13.9405 1.33301 13.6738 1.33301H2.34082C2.05302 1.34376 1.81299 1.44579 1.62109 1.6377C1.42929 1.82964 1.33301 2.0646 1.33301 2.3418V13.6748C1.3224 13.952 1.41849 14.187 1.62109 14.3789C1.82363 14.5708 2.06371 14.6669 2.34082 14.667H10.5127C10.5853 14.7478 10.6634 14.8255 10.751 14.8955L12.1318 16H3.00781C2.17589 15.9893 1.25362 15.9089 0.666992 15.333C0.0803409 14.757 0 13.8398 0 13.0078V3.00781C1.10469e-05 2.17586 0.0803815 1.25362 0.666992 0.666992C1.25362 0.0803604 2.17587 6.96074e-06 3.00781 0H13.0078Z" fill="#F2F2F2"/>
<path d="M11.0195 6.09766C11.2523 6.1106 11.4784 6.23405 11.6982 6.4668C11.931 6.77715 12.1901 7.20397 12.4746 7.74707C12.7299 8.23454 13.0152 8.86838 13.333 9.64746V11.8389L13.249 11.7715C12.3865 11.0817 11.1284 11.2216 10.4385 12.084C10.1433 12.453 10.0008 12.8945 10.001 13.333H3.20215C2.86611 13.3458 2.5813 13.23 2.34863 12.9844C2.11595 12.7387 2.00002 12.4475 2 12.1113V11.7236C2.14221 11.3875 2.35525 10.87 2.63965 10.1719C2.92413 9.47358 3.11163 9.02038 3.20215 8.81348C3.37023 8.4644 3.60963 8.39377 3.91992 8.60059C4.11387 8.72989 4.43712 9.09837 4.88965 9.70605C5.01876 9.8739 5.11601 9.99661 5.18066 10.0742C5.6202 10.656 5.9567 10.9471 6.18945 10.9473C6.43515 10.9343 6.65564 10.8439 6.84961 10.6758C7.04351 10.5077 7.26322 10.2682 7.50879 9.95801C7.75444 9.6477 7.98724 9.32444 8.20703 8.98828C8.42685 8.65208 8.65959 8.30909 8.90527 7.95996C9.15091 7.6109 9.39033 7.2942 9.62305 7.00977C9.85578 6.72532 10.0886 6.49915 10.3213 6.33105C10.5541 6.16295 10.7868 6.08472 11.0195 6.09766Z" fill="#F2F2F2"/>
<path d="M4.49609 3.00781C4.93332 2.9972 5.2901 3.14181 5.56738 3.44043C5.84465 3.73903 5.98928 4.09583 6 4.51172C6.01067 4.92772 5.86604 5.28036 5.56738 5.56836C5.26886 5.85603 4.91179 5.99995 4.49609 6C4.0801 6 3.72745 5.85636 3.43945 5.56836C3.15148 5.28037 3.00781 4.9277 3.00781 4.51172C3.02918 4.07474 3.17313 3.71764 3.43945 3.44043C3.70611 3.1631 4.05877 3.01848 4.49609 3.00781Z" fill="#F2F2F2"/>
</svg>
