<svg width="14" height="16" viewBox="0 0 14 16" fill="none" xmlns="http://www.w3.org/2000/svg">
<path d="M13.6075 7.18202C12.7245 4.40905 10.1792 2.1108 10.1792 2.1108C10.1792 2.1108 9.26463 1.26024 8.52527 1.5386C8.33458 1.61041 8.1295 1.7737 7.81572 2.46052C7.62364 2.88115 7.39185 3.49721 7.2563 4.30016C7.25052 4.33424 7.19835 4.33096 7.1982 4.29639C7.19274 2.8155 7.20553 -1.30691 4.51736 0.411933C-0.257406 3.4649 -0.0831081 9.68937 0.044648 11.3289C0.0980618 12.0141 0.251119 12.6895 0.48992 13.3369C1.71047 16.6456 5.42928 19.1058 4.67635 6.44383C4.67368 6.39922 4.74021 6.3896 4.75069 6.43301C4.96951 7.342 5.3426 10.6221 7.00345 10.9404C7.04419 10.9483 7.19366 10.9696 7.38452 10.9457C8.7191 10.7784 9.22042 8.69205 9.45455 7.88447C9.46657 7.843 9.52998 7.85171 9.52998 7.89483V10.3546C9.52998 10.3546 9.50405 12.403 11.1402 12.9276C12.7765 13.4522 13.6075 11.7034 13.6075 11.7034C13.6075 11.7034 14.4906 9.95482 13.6075 7.18202ZM2.27803 5.24294L2.19495 5.46782C2.17371 5.53498 2.15012 5.63443 2.13122 5.70324C2.11561 5.79937 1.96786 5.79937 1.95255 5.70427C1.94037 5.6272 1.91882 5.5216 1.90992 5.4453L1.90117 5.32708C1.89211 5.20329 1.94771 5.07845 2.05766 5.0134C2.22275 4.91562 2.35987 5.01357 2.27803 5.24294ZM4.63543 1.48512C3.94681 2.19598 3.34632 2.97594 2.88681 3.83943C2.73392 4.12362 2.59617 4.41493 2.46358 4.7098C2.36378 4.92161 2.0333 4.80504 2.1003 4.58121C2.52371 3.30326 3.41128 2.15707 4.56905 1.40986C4.6181 1.37877 4.6768 1.44261 4.63543 1.48512Z" fill="#FA8072"/>
</svg>
